<?xml version="1.0" standalone="no"?>
<!DOCTYPE svg PUBLIC "-//W3C//DTD SVG 20010904//EN"
 "http://www.w3.org/TR/2001/REC-SVG-20010904/DTD/svg10.dtd">
<svg version="1.0" xmlns="http://www.w3.org/2000/svg"
 width="512.000000pt" height="512.000000pt" viewBox="0 0 512.000000 512.000000"
 preserveAspectRatio="xMidYMid meet">
<metadata>
Created by potrace 1.11, written by Peter Selinger 2001-2013
</metadata>
<g transform="translate(0.000000,512.000000) scale(0.100000,-0.100000)"
fill="#000000" stroke="none">
<path d="M3068 5104 c-202 -47 -365 -211 -412 -415 -80 -339 182 -669 531
-670 272 -1 502 194 548 465 43 257 -120 523 -373 607 -80 27 -211 32 -294 13z"/>
<path d="M4528 4327 c-52 -20 -87 -52 -292 -266 -179 -187 -360 -261 -641
-263 -272 -3 -458 58 -830 272 -220 127 -387 194 -540 217 -16 2 -47 8 -67 13
-62 13 -327 10 -423 -6 -420 -67 -803 -296 -1071 -640 -49 -62 -92 -144 -105
-199 -62 -268 174 -446 388 -293 23 17 75 72 115 122 185 231 350 344 556 380
69 12 225 13 277 2 71 -15 76 -18 69 -40 -4 -11 -10 -25 -14 -31 -4 -5 -21
-35 -37 -65 -51 -95 -244 -453 -273 -505 -40 -73 -100 -186 -160 -300 -29 -55
-65 -122 -80 -150 -15 -27 -48 -88 -72 -135 -114 -214 -224 -422 -263 -495
-23 -44 -64 -120 -90 -170 -26 -49 -65 -121 -85 -160 -21 -38 -61 -115 -90
-170 -80 -153 -149 -283 -190 -360 -39 -73 -102 -192 -190 -360 -29 -55 -74
-140 -100 -190 -27 -49 -55 -113 -63 -140 -57 -197 91 -394 293 -391 97 1 176
48 252 147 33 44 118 188 118 200 0 5 5 9 10 9 6 0 10 4 10 9 0 5 35 69 78
142 43 74 179 307 302 519 358 617 391 672 403 667 186 -77 609 -285 614 -302
1 -5 -19 -23 -45 -39 -26 -17 -76 -49 -112 -72 -93 -59 -456 -287 -477 -299
-131 -74 -205 -178 -205 -290 0 -127 62 -230 172 -286 60 -30 152 -30 239 0
75 26 859 415 1075 534 211 116 291 199 336 345 35 114 6 235 -77 313 -21 20
-153 115 -293 211 -387 266 -424 291 -454 314 l-28 20 25 45 c13 24 66 123
117 219 51 96 109 207 130 245 50 92 280 498 285 503 2 3 35 -3 72 -12 37 -8
85 -18 107 -21 21 -3 43 -8 48 -11 5 -3 78 -7 161 -9 227 -5 398 25 591 102
90 35 250 123 316 172 19 14 39 29 45 33 5 4 46 38 91 77 140 121 324 333 376
435 90 177 31 365 -128 412 -63 18 -108 16 -176 -9z"/>
</g>
</svg>
